<!-- assets/guide-pattern.svg -->
<svg xmlns="http://www.w3.org/2000/svg" width="800" height="800">
  <defs>
    <!-- Global stroke style -->
    <style>
      .line { fill: none; stroke: #111; stroke-width: 2; stroke-linecap: round; stroke-linejoin: round; }
    </style>

    <!-- Camera -->
    <symbol id="icon-camera" viewBox="0 0 120 90">
      <rect x="6" y="18" width="108" height="66" rx="6" class="line"/>
      <rect x="20" y="10" width="28" height="14" rx="2" class="line"/>
      <circle cx="64" cy="50" r="22" class="line"/>
      <circle cx="64" cy="50" r="10" class="line"/>
      <rect x="92" y="28" width="12" height="8" class="line"/>
      <path d="M18 38h20" class="line"/>
    </symbol>

    <!-- Notebook -->
    <symbol id="icon-notebook" viewBox="0 0 90 110">
      <rect x="10" y="8" width="68" height="94" rx="4" class="line"/>
      <rect x="72" y="8" width="8" height="94" class="line"/>
      <path d="M18 22h44M18 36h44M18 50h44M18 64h44M18 78h44" class="line"/>
    </symbol>

    <!-- Watch -->
    <symbol id="icon-watch" viewBox="0 0 36 160">
      <rect x="14" y="10" width="8" height="40" rx="2" class="line"/>
      <circle cx="18" cy="82" r="22" class="line"/>
      <circle cx="18" cy="82" r="10" class="line"/>
      <rect x="14" y="112" width="8" height="38" rx="2" class="line"/>
      <path d="M6 82h24" class="line"/>
    </symbol>

    <!-- Compass -->
    <symbol id="icon-compass" viewBox="0 0 90 90">
      <circle cx="45" cy="45" r="36" class="line"/>
      <path d="M45 15v60M15 45h60" class="line"/>
      <path d="M45 25l12 20-12 20-12-20z" class="line"/>
    </symbol>

    <!-- Lens -->
    <symbol id="icon-lens" viewBox="0 0 100 100">
      <circle cx="50" cy="50" r="36" class="line"/>
      <circle cx="50" cy="50" r="26" class="line"/>
      <path d="M20 38h60M20 62h60" class="line"/>
    </symbol>

    <!-- Glasses -->
    <symbol id="icon-glasses" viewBox="0 0 140 60">
      <circle cx="40" cy="30" r="18" class="line"/>
      <circle cx="100" cy="30" r="18" class="line"/>
      <path d="M58 30h24M8 18l18 6M132 18l-18 6" class="line"/>
    </symbol>

    <!-- Pencil -->
    <symbol id="icon-pencil" viewBox="0 0 130 20">
      <rect x="10" y="6" width="96" height="8" rx="2" class="line"/>
      <path d="M106 6l14 4-14 4z" class="line"/>
      <path d="M10 6v8" class="line"/>
    </symbol>

    <!-- Tile that repeats -->
    <pattern id="tile" width="400" height="400" patternUnits="userSpaceOnUse">
      <!-- Row 1 -->
      <use href="#icon-camera"   x="16"  y="16"  width="120" height="90"/>
      <use href="#icon-lens"     x="160" y="16"  width="100" height="100"/>
      <use href="#icon-notebook" x="280" y="10"  width="90"  height="110"/>

      <!-- Row 2 -->
      <use href="#icon-glasses"  x="16"  y="130" width="140" height="60"/>
      <use href="#icon-compass"  x="180" y="140" width="90"  height="90"/>
      <use href="#icon-watch"    x="300" y="120" width="36"  height="160"/>

      <!-- Row 3 -->
      <use href="#icon-pencil"   x="16"  y="240" width="130" height="20"/>
      <use href="#icon-camera"   x="170" y="230" width="120" height="90"/>
      <use href="#icon-lens"     x="310" y="250" width="100" height="100"/>

      <!-- Light speckle dots for “texture” -->
      <g opacity="0.25">
        <circle cx="60"  cy="210" r="2" fill="#111"/>
        <circle cx="220" cy="80"  r="2" fill="#111"/>
        <circle cx="350" cy="200" r="2" fill="#111"/>
        <circle cx="120" cy="300" r="2" fill="#111"/>
        <circle cx="260" cy="340" r="2" fill="#111"/>
      </g>
    </pattern>
  </defs>

  <!-- Fill full SVG with the pattern -->
  <rect width="100%" height="100%" fill="url(#tile)"/>
</svg>